
<svg version="1.1" id="Layer_1" xmlns="http://www.w3.org/2000/svg" xmlns:xlink="http://www.w3.org/1999/xlink" x="0px" y="0px"
	 viewBox="0 0 500 500" style="enable-background:new 0 0 500 500;" xml:space="preserve">
<defs>
<style type="text/css">
	.st0{fill:#2459A8;}
	.st1{fill:#64FFDA;}
    }
</style>
</defs>
<g>
	<g>
		<path class="st0" d="M204.838,356.909c-10.38-5.028-18.835-12.091-25.36-21.187l26.805-19.261
			c2.995,5.244,7.328,9.309,13.001,12.198c5.67,2.889,12.251,4.334,19.742,4.334c12.732,0,22.604-3.958,29.613-11.878
			c7.008-7.918,10.514-19.045,10.514-33.386V128.667h32.744v159.224c0,16.159-2.836,29.963-8.508,41.411
			c-5.672,11.452-13.963,20.172-24.879,26.163c-10.914,5.994-24.076,8.988-39.484,8.988
			C226.612,364.453,215.216,361.94,204.838,356.909z"/>
	</g>
</g>
<g>
	<g>
		<path class="st1" d="M199.838,356.909c-10.38-5.028-18.835-12.091-25.36-21.187l26.805-19.261
			c2.995,5.244,7.328,9.309,13.001,12.198c5.67,2.889,12.251,4.334,19.742,4.334c12.733,0,22.604-3.958,29.613-11.878
			c7.008-7.918,10.514-19.045,10.514-33.386V128.667h32.744v159.224c0,16.159-2.836,29.963-8.508,41.411
			c-5.672,11.452-13.963,20.172-24.879,26.163c-10.914,5.994-24.076,8.988-39.484,8.988
			C221.612,364.453,210.216,361.94,199.838,356.909z"/>
	</g>
</g>
</svg>
