<?xml version="1.0" encoding="utf-8"?>
<!-- Generator: Adobe Illustrator 22.1.0, SVG Export Plug-In . SVG Version: 6.00 Build 0)  -->
<svg version="1.1" id="Layer_1" xmlns="http://www.w3.org/2000/svg" xmlns:xlink="http://www.w3.org/1999/xlink" x="0px" y="0px"
	 viewBox="0 0 500 500" style="enable-background:new 0 0 500 500;" xml:space="preserve">
<style type="text/css">
	.st0{fill:#64FFDA;}
	.st1{fill:#2459A8;}
</style>
<g>
	<g>
		<path class="st0" d="M250.5,41.2l179.9,106L428.5,356L246.7,458.8l-179.9-106l1.9-208.8L250.5,41.2 M250.8,10L41.8,128.1l-2.1,240
			L246.5,490l208.9-118.1l2.1-240L250.8,10L250.8,10z"/>
	</g>
</g>
<g>
	<g>
		<g>
			<path class="st1" d="M212.3,337.9c-7.5-3.6-13.6-8.7-18.3-15.3l19.3-13.9c2.2,3.8,5.3,6.7,9.4,8.8c4.1,2.1,8.8,3.1,14.2,3.1
				c9.2,0,16.3-2.9,21.3-8.6c5.1-5.7,7.6-13.7,7.6-24.1V173.4h23.6v114.8c0,11.6-2,21.6-6.1,29.8c-4.1,8.3-10.1,14.5-17.9,18.9
				c-7.9,4.3-17.4,6.5-28.5,6.5C228,343.4,219.8,341.6,212.3,337.9z"/>
		</g>
	</g>
	<g>
		<g>
			<path class="st0" d="M208.7,337.9c-7.5-3.6-13.6-8.7-18.3-15.3l19.3-13.9c2.2,3.8,5.3,6.7,9.4,8.8c4.1,2.1,8.8,3.1,14.2,3.1
				c9.2,0,16.3-2.9,21.3-8.6c5.1-5.7,7.6-13.7,7.6-24.1V173.4h23.6v114.8c0,11.6-2,21.6-6.1,29.8c-4.1,8.3-10.1,14.5-17.9,18.9
				c-7.9,4.3-17.4,6.5-28.5,6.5C224.4,343.4,216.2,341.6,208.7,337.9z"/>
		</g>
	</g>
</g>
</svg>
